<?xml version="1.0" encoding="UTF-8"?>
<svg id="Capa_1" data-name="Capa 1" xmlns="http://www.w3.org/2000/svg" xmlns:xlink="http://www.w3.org/1999/xlink" viewBox="0 0 259.4 270.64">
  <defs>
    <linearGradient id="Degradado_sin_nombre" data-name="Degradado sin nombre" x1="-142.68" y1="-345.31" x2="118.06" y2="-487.54" gradientTransform="translate(159 -277.49) scale(1 -1)" gradientUnits="userSpaceOnUse">
      <stop offset="0" stop-color="#e58a1a"/>
      <stop offset=".66" stop-color="#dc8020"/>
      <stop offset="1" stop-color="#b96c26"/>
    </linearGradient>
  </defs>
  <rect x="0" width="259.4" height="270.64" fill="#090908"/>
  <g>
    <path d="M111.68.55c103.52-9.45,168.98,105.7,116.01,193.01-1.63,2.69-11.91,16.03-11.74,17.05.1.59,4.04,4.46,4.42,4.47.88,0,3.49-3.82,5.48-2.38l31.27,32.8c5.26,12.85-13.76,31.87-26.75,22.75-4.91-3.45-22.97-22.86-26.89-28.1-5.13-6.86.77-6.41.29-9.26-.19-1.14-3.08-3.57-4.44-3.7-2.46-.24-5.45,3.54-7.92,5.08C76.35,303.95-46.09,175.12,17.37,62.24,36.15,28.84,73.18,4.07,111.68.55Z" fill="url(#Degradado_sin_nombre)"/>
    <path d="M121.71,15.52c79.89-1.96,132.04,83.5,101.36,155.41-32.63,76.49-133.35,90.57-184.57,24.22C-16.44,123.99,30.8,17.75,121.71,15.52Z" fill="#090909"/>
  </g>
  <path d="M180.89,59.26c1.25,1.2.55,2.39-1.08,3.1,2.97,12.5,6.55,24.89,10.74,37.19.52,2.73.79,5.74-2.66,4.71-2.73-7-7.41-13.35-10.76-19.74-3.59-6.83-6.22-19.41-15.2-21.79-16.88-4.47-25.21,23.33-26.07,35.99-1.63,23.89,5.05,27.85,16.87,45.21,6.65,9.77,7.92,21.81,9.17,33.33l-2.98-2.15c-3.61-8.81-7.91-17.37-12.2-25.8-11.12-21.82-25.2-32.35-41.33-6.61-6.54,10.44-11.61,21.84-16.2,33.17l-2.29.38c.59-11.59,2.41-23.65,9.17-33.33,11.89-17.02,17.92-23.02,15.7-46.04-1.16-12.02-11.94-42.51-28.79-33.05-5.72,3.21-14.53,20.86-17.6,27.4s-5.15,12.16-6.48,19.02c-2.88-1.24-2.47-8.39-2.26-11.51,2.37-13.84,6.76-27.32,13.15-40.47l-.89-2.02c8.46-14.77,22.17-22.98,39.54-22.03,12.24.67,15.42.97,27.98.05,21.58-1.58,33.28,7.8,44.48,24.98h0Z" fill="#bd793a"/>
  <path d="M161.89,177.26c2.16,5.77,6.64,19.96,6.9,25.65.53,11.83-8.23,35.12-22.45,22.39-2.76-2.47-14.59-14.86-16.46-17.55-7.78-11.21,5.96-13.21,11.49-18.51,8.57-8.2,8.19-24.39-4.22-28.77-16.4-5.78-40.02-1.85-34.59,20.59,2.63,10.85,12.33,10.31,16.34,16.65,5.88,9.28-5.37,14.09-10.53,19.52-3.53,3.72-4.47,9.14-10.42,10.58-9.01,2.18-12.44-1.92-15.55-9.58-5.69-14.02-.64-28.48,4.48-41.98,4.33-11.41,18.1-42.73,28.63-47.87,18.6-9.1,27.42,9.02,34.23,22.52,4.16,8.25,8.92,17.77,12.14,26.36h.01Z" fill="#eacc9f"/>
  <path d="M180.89,59.26c22.1,25.31,52.01,52.09,40.05,89.55-1.27,3.98-4.11,7.55-5.35,11.65-3.51,11.57-3.48,19.39-12.73,29.27-4.25,4.53-5.35,4.92-9.4-.53-16.15-21.76-1.8-50.95-3.58-74.43-.25-3.32-1.56-6.77-1.99-10.51,0-.12,1.1-.87.95-2.31-1.59-15.52-12.29-28.08-10.94-43.69,1.53.34,2.6,3.19,2.99,1h0Z" fill="#a1642f"/>
  <path d="M58.89,110.26c-.11,5.56-1.38,10.61-1.04,16.54,1.13,19.76,11.16,45.61-4.55,63.37-4.56,5.15-5.34,3.03-9.38-1.44-8.21-9.08-7.78-13.83-10.71-24.29-1.82-6.49-6.45-12.5-8.04-18.96-4.66-18.92,2.26-37.22,12.89-52.56,4.85-7,25-32.34,30.83-36.67.2-.15,2.44.25,3.99-2,.88,3.35-2.05,5.08-2.78,7.71-2.94,10.71-7.7,17.85-10.14,27.86s-.91,12.3-1.07,20.43h0Z" fill="#a06430"/>
  <path d="M178.89,102.26c3.17,3.06,4.6,11.13,4.98,15.52,2.08,23.63-11.4,37.05-12.99,59.48-1.71-.22-1.96-3.76-2.32-5.17-2.3-9.06-4.1-18.17-.46-27.12,2.65-6.51,10.79-16.47,10.79-24.21v-18.5h0Z" fill="#bd7b3e"/>
  <path d="M77.88,179.25l-2.46-14.02c-3.09-11.55-10.18-21.4-11.41-33.59-.95-9.38.57-18.36,2.89-27.37l2.26,17.22c-.24,9.39,11.56,21.28,12.66,28.34,1.54,9.86-1.71,20.01-3.95,29.43h.01Z" fill="#bb793c"/>
  <path d="M119.61,216.49c7.37-1.55,15.81,1.24,19.27,8.25-5.1,4.68-24.59,4.9-28.99,1.01-3.21-2.84,7.22-8.74,9.72-9.26Z" fill="#e7cba0"/>
  <path d="M76.9,102.26c-.49-10.23,10.45-16.31,19.32-10.83,5.56,3.43,14.08,18.72,3.62,15.4-6.81-2.16-10.33-15.95-22.94-4.57Z" fill="#bc793b"/>
  <path d="M170.88,102.25c-3.9-.89-5.91-4.42-10.39-3.99-7.15.69-9.25,10.39-16.6,9-1.89-18.65,24.38-26.29,26.99-5.01Z" fill="#b77538"/>
  <path d="M83.89,106.26c-1.58,7.72,7.51,14.97,13.51,8.02,5.33,7.51-6.04,7.97-11.51,5.49s-11.29-12.99-2-13.5h0Z" fill="#e3d3ac"/>
  <path d="M149.9,114.26c.28-.25,3.22,2.57,4.72,2.85,5.39,1.01,10.84-5.66,9.27-10.84,12.82,5-4.79,20.37-13.56,13.03-1.47-1.23-1.41-4.17-.43-5.03h0Z" fill="#dccca6"/>
  <path d="M157.4,105.27c2.45-.54,3.33,3.47.97,3.99s-3.33-3.47-.97-3.99Z" fill="#adaaa1"/>
  <path d="M91.89,106.27c1.07.96-2.05,4.06-2.99,2.99-1.51-1.71,1.3-4.49,2.99-2.99Z" fill="#c6c3b5"/>
  <path d="M136.45,179.72c-.49-.47,2.26-2.11-.46-3.87-4.14-2.67-9.07,2.32-7.05,7.19,1.15,2.76,3.42,2.04,5.38,3.34-2.49,2.15-5.54,4.42-8.89,4.37.04-2.29-.05-4.83-.48-7.07-.1-.51-.12-1.72-.79-1.66l-.86,8.72c-1.07,1.11-7.95-3.27-8.88-4.82,4.04-.1,6.75-2.06,5.91-6.87-.9-5.15-9.35-5.05-8.46-.54.09.47,1.27-.02.86,1.21-6.38.79-6.45-9.05-2.32-12.41,5.36-4.37,23.37-4.61,28.38.45,3.5,3.53,3.66,12.33-2.34,11.96Z" fill="#d1781d"/>
</svg>